<?xml version="1.0" encoding="utf-8"?>
<svg version="1.1" id="applogo" xmlns="http://www.w3.org/2000/svg" xmlns:xlink="http://www.w3.org/1999/xlink" x="0px" y="0px"
	 viewBox="0 0 113 36" enable-background="new 0 0 113 36" xml:space="preserve">
	<path d="M1,4.2V1h14.3v3.2h-5.2v14.2H6.2V4.2H1z"/>
	<path d="M23.7,1l6.5,17.4h-4l-1.3-3.9h-6.5l-1.4,3.9h-3.9L19.8,1H23.7z M23.9,11.7l-2.2-6.4h0l-2.3,6.4H23.9z"/>
	<path d="M39.6,1c1.1,0,2,0.2,2.8,0.5c0.8,0.3,1.4,0.7,1.9,1.3c0.5,0.5,0.8,1.1,1,1.8c0.2,0.7,0.3,1.4,0.3,2.1
		c0,0.7-0.1,1.4-0.3,2.1s-0.6,1.3-1,1.8c-0.5,0.5-1.1,0.9-1.9,1.3c-0.8,0.3-1.7,0.5-2.8,0.5h-4v6.3h-3.8V1H39.6z M38.6,9.2
		c0.4,0,0.9,0,1.3-0.1c0.4-0.1,0.8-0.2,1.1-0.4c0.3-0.2,0.6-0.5,0.7-0.8c0.2-0.3,0.3-0.8,0.3-1.3c0-0.6-0.1-1-0.3-1.3
		c-0.2-0.3-0.4-0.6-0.7-0.8c-0.3-0.2-0.7-0.3-1.1-0.4C39.4,4,39,4,38.6,4h-3v5.2H38.6z"/>
	<path d="M48.1,12.3v0.1c0,0.7,0.1,1.4,0.3,2.1c0.2,0.7,0.5,1.3,0.9,1.8c0.4,0.5,0.9,0.9,1.4,1.2c0.6,0.3,1.3,0.4,2,0.4
		c1.3,0,2.3-0.3,3-1c0.7-0.7,1.2-1.6,1.5-2.7h0.9c-0.3,1.5-0.9,2.6-1.8,3.4c-0.9,0.8-2.1,1.2-3.6,1.2c-0.9,0-1.7-0.2-2.4-0.5
		c-0.7-0.3-1.3-0.8-1.7-1.4c-0.5-0.6-0.8-1.3-1-2.1c-0.2-0.8-0.3-1.6-0.3-2.6c0-0.9,0.1-1.7,0.4-2.5c0.2-0.8,0.6-1.5,1.1-2.1
		C49,7,49.6,6.5,50.3,6.1c0.7-0.4,1.5-0.5,2.5-0.5c0.9,0,1.7,0.2,2.3,0.5c0.7,0.3,1.2,0.8,1.7,1.3c0.5,0.6,0.8,1.2,1,2
		c0.2,0.7,0.4,1.5,0.4,2.4c0,0.1,0,0.2,0,0.3c0,0.1,0,0.2,0,0.3H48.1z M57.3,11.5c0-0.7-0.1-1.3-0.3-1.9c-0.2-0.6-0.5-1.1-0.9-1.6
		c-0.4-0.5-0.8-0.8-1.4-1.1c-0.5-0.3-1.2-0.4-1.9-0.4c-0.8,0-1.4,0.1-2,0.4c-0.6,0.3-1.1,0.7-1.4,1.1c-0.4,0.5-0.7,1-0.9,1.6
		c-0.2,0.6-0.3,1.3-0.4,1.9H57.3z"/>
	<path d="M65.2,18.4H64L59,5.9h1.1l4.5,11.5h0l4.2-11.5h1L65.2,18.4z"/>
	<path d="M71.6,12.3v0.1c0,0.7,0.1,1.4,0.3,2.1c0.2,0.7,0.5,1.3,0.9,1.8c0.4,0.5,0.9,0.9,1.4,1.2c0.6,0.3,1.3,0.4,2,0.4
		c1.3,0,2.3-0.3,3-1c0.7-0.7,1.2-1.6,1.5-2.7h0.9c-0.3,1.5-0.9,2.6-1.8,3.4c-0.9,0.8-2.1,1.2-3.6,1.2c-0.9,0-1.7-0.2-2.4-0.5
		c-0.7-0.3-1.3-0.8-1.7-1.4c-0.5-0.6-0.8-1.3-1-2.1c-0.2-0.8-0.3-1.6-0.3-2.6c0-0.9,0.1-1.7,0.4-2.5c0.2-0.8,0.6-1.5,1.1-2.1
		c0.5-0.6,1.1-1.1,1.8-1.5c0.7-0.4,1.5-0.5,2.5-0.5c0.9,0,1.7,0.2,2.3,0.5c0.7,0.3,1.2,0.8,1.7,1.3c0.5,0.6,0.8,1.2,1,2
		c0.2,0.7,0.4,1.5,0.4,2.4c0,0.1,0,0.2,0,0.3c0,0.1,0,0.2,0,0.3H71.6z M80.8,11.5c0-0.7-0.1-1.3-0.3-1.9c-0.2-0.6-0.5-1.1-0.9-1.6
		c-0.4-0.5-0.8-0.8-1.4-1.1c-0.5-0.3-1.2-0.4-1.9-0.4c-0.8,0-1.4,0.1-2,0.4c-0.6,0.3-1.1,0.7-1.4,1.1c-0.4,0.5-0.7,1-0.9,1.6
		c-0.2,0.6-0.3,1.3-0.4,1.9H80.8z"/>
	<path d="M83.9,5.9h0.9v2.7h0c0.2-0.5,0.4-0.9,0.7-1.3c0.3-0.4,0.7-0.7,1-0.9c0.4-0.3,0.8-0.5,1.3-0.6c0.5-0.1,1-0.2,1.4-0.2
		c0.7,0,1.4,0.1,1.9,0.3c0.5,0.2,0.9,0.4,1.3,0.7s0.6,0.6,0.8,1c0.2,0.4,0.3,0.7,0.4,1.1c0.1,0.4,0.1,0.7,0.1,1.1s0,0.7,0,0.9v7.8
		h-0.9v-7.9c0-0.3,0-0.7-0.1-1.2S92.6,8.4,92.4,8c-0.2-0.4-0.6-0.8-1.1-1.1c-0.5-0.3-1.1-0.5-2-0.5c-0.7,0-1.4,0.1-1.9,0.4
		c-0.6,0.3-1,0.6-1.4,1.1c-0.4,0.5-0.7,1-0.9,1.7c-0.2,0.6-0.3,1.3-0.3,2.1v6.8h-0.9V5.9z"/>
	<path d="M101.2,6.7h-2.7v8.8c0,0.5,0.1,0.9,0.2,1.2c0.1,0.3,0.3,0.5,0.5,0.7c0.2,0.2,0.5,0.2,0.9,0.3c0.3,0,0.7,0,1.2,0v0.8
		c-0.5,0-0.9,0-1.4,0c-0.4,0-0.8-0.2-1.2-0.4c-0.3-0.2-0.6-0.5-0.8-0.9c-0.2-0.4-0.3-1-0.3-1.7V6.7h-2.3V5.9h2.3V2h0.9v3.9h2.7V6.7z
		"/>
	<path d="M103.3,14.3c0,0.6,0.2,1.1,0.4,1.6c0.2,0.4,0.5,0.8,0.9,1.1c0.4,0.3,0.8,0.6,1.3,0.7c0.5,0.2,1,0.2,1.6,0.2
		c0.4,0,0.8,0,1.3-0.1c0.5-0.1,0.9-0.2,1.3-0.4c0.4-0.2,0.7-0.5,1-0.8c0.3-0.3,0.4-0.8,0.4-1.3c0-0.7-0.2-1.2-0.6-1.6
		c-0.4-0.4-1-0.6-1.6-0.8c-0.6-0.2-1.3-0.4-2.1-0.5c-0.7-0.1-1.4-0.3-2.1-0.5c-0.6-0.2-1.2-0.6-1.6-1c-0.4-0.4-0.6-1.1-0.6-2
		c0-0.6,0.1-1.1,0.4-1.6c0.3-0.4,0.6-0.7,1.1-1c0.4-0.2,0.9-0.4,1.5-0.5c0.5-0.1,1.1-0.2,1.6-0.2c0.7,0,1.3,0.1,1.8,0.2
		c0.6,0.1,1.1,0.4,1.5,0.7c0.4,0.3,0.7,0.7,1,1.2c0.2,0.5,0.4,1.1,0.4,1.8h-0.9c0-0.6-0.1-1.1-0.3-1.5c-0.2-0.4-0.4-0.7-0.8-1
		c-0.3-0.3-0.7-0.4-1.2-0.6c-0.5-0.1-0.9-0.2-1.5-0.2c-0.4,0-0.9,0-1.3,0.1s-0.8,0.2-1.2,0.4c-0.3,0.2-0.6,0.4-0.8,0.8
		c-0.2,0.3-0.3,0.7-0.3,1.1c0,0.5,0.1,0.9,0.4,1.2c0.2,0.3,0.6,0.6,1,0.7c0.4,0.2,0.8,0.3,1.3,0.5c0.5,0.1,1,0.2,1.5,0.3
		c0.6,0.1,1.2,0.2,1.7,0.4c0.5,0.2,1,0.4,1.4,0.6c0.4,0.3,0.7,0.6,0.9,1c0.2,0.4,0.3,1,0.3,1.6c0,0.7-0.2,1.2-0.5,1.7
		c-0.3,0.4-0.7,0.8-1.2,1.1c-0.5,0.3-1,0.5-1.6,0.6c-0.6,0.1-1.1,0.2-1.7,0.2c-0.7,0-1.4-0.1-2-0.3c-0.6-0.2-1.1-0.5-1.6-0.9
		c-0.5-0.4-0.8-0.9-1.1-1.4c-0.3-0.6-0.4-1.2-0.4-1.9H103.3z"/>
	<path fill="#505050" d="M26.8,23h2.3c0.9,0,1.6,0.1,2.1,0.3c0.5,0.2,0.9,0.6,1.2,1c0.3,0.5,0.4,1,0.4,1.5c0,0.5-0.1,1-0.4,1.4
		c-0.3,0.4-0.6,0.8-1.1,1c0.6,0.2,1.1,0.4,1.4,0.7c0.3,0.3,0.6,0.6,0.8,1c0.2,0.4,0.3,0.8,0.3,1.3c0,0.9-0.3,1.7-1,2.4
		c-0.7,0.6-1.6,1-2.8,1h-3.2V23z M27.9,24.2v3.7h0.7c0.8,0,1.4-0.1,1.8-0.2s0.7-0.4,0.9-0.7c0.2-0.3,0.3-0.7,0.3-1.1
		c0-0.5-0.2-1-0.6-1.3c-0.4-0.3-1-0.5-1.8-0.5H27.9z M27.9,29.1v4.5h1.4c0.9,0,1.5-0.1,1.9-0.3c0.4-0.2,0.7-0.4,1-0.8
		c0.2-0.4,0.4-0.7,0.4-1.2c0-0.5-0.2-1-0.5-1.4c-0.3-0.4-0.8-0.7-1.4-0.8c-0.4-0.1-1.1-0.1-2.1-0.1H27.9z"/>
	<path fill="#505050" d="M44.5,26.1v8.6h-1.1v-1.5c-0.5,0.6-1,1-1.6,1.3c-0.6,0.3-1.2,0.4-1.9,0.4c-1.2,0-2.3-0.4-3.1-1.3
		c-0.9-0.9-1.3-2-1.3-3.2c0-1.2,0.4-2.3,1.3-3.2s1.9-1.3,3.2-1.3c0.7,0,1.4,0.2,1.9,0.5s1.1,0.8,1.5,1.4v-1.6H44.5z M40.1,26.9
		c-0.6,0-1.2,0.2-1.7,0.5c-0.5,0.3-0.9,0.7-1.3,1.3c-0.3,0.6-0.5,1.1-0.5,1.7c0,0.6,0.2,1.2,0.5,1.7c0.3,0.6,0.7,1,1.3,1.3
		c0.5,0.3,1.1,0.5,1.7,0.5c0.6,0,1.2-0.2,1.7-0.5c0.5-0.3,1-0.7,1.3-1.2c0.3-0.5,0.4-1.1,0.4-1.8c0-1-0.3-1.8-1-2.5
		C41.9,27.2,41,26.9,40.1,26.9z"/>
	<path fill="#505050" d="M55.4,27.9l-0.9,0.5c-0.8-1-1.8-1.5-3.1-1.5c-1.1,0-1.9,0.3-2.6,1c-0.7,0.7-1,1.5-1,2.5
		c0,0.6,0.2,1.2,0.5,1.8c0.3,0.6,0.8,1,1.3,1.3c0.6,0.3,1.2,0.5,1.9,0.5c1.3,0,2.3-0.5,3.1-1.5l0.9,0.6c-0.4,0.6-1,1.1-1.7,1.4
		c-0.7,0.3-1.5,0.5-2.4,0.5c-1.4,0-2.5-0.4-3.4-1.3c-0.9-0.9-1.4-1.9-1.4-3.2c0-0.8,0.2-1.6,0.6-2.3c0.4-0.7,1-1.3,1.7-1.7
		s1.6-0.6,2.5-0.6c0.6,0,1.1,0.1,1.7,0.3s1,0.4,1.4,0.7C54.9,27.1,55.2,27.4,55.4,27.9z"/>
	<path fill="#505050" d="M57.6,22.7h1.1v6.8l4-3.5h1.6l-4.8,4.1l5,4.5H63l-4.4-3.9v3.9h-1.1V22.7z"/>
	<path fill="#505050" d="M71.5,22.7c1.8,0,3.3,0.6,4.4,1.8s1.8,2.6,1.8,4.4c0,1.7-0.6,3.2-1.8,4.4S73.3,35,71.6,35
		c-1.7,0-3.2-0.6-4.4-1.8c-1.2-1.2-1.8-2.6-1.8-4.3c0-1.1,0.3-2.2,0.8-3.1c0.5-1,1.3-1.7,2.2-2.3C69.4,23,70.4,22.7,71.5,22.7z
		 M71.5,23.9c-0.9,0-1.7,0.2-2.5,0.7c-0.8,0.5-1.4,1.1-1.8,1.8c-0.4,0.8-0.7,1.6-0.7,2.6c0,1.4,0.5,2.6,1.4,3.5c1,1,2.1,1.4,3.5,1.4
		c0.9,0,1.7-0.2,2.5-0.7c0.8-0.4,1.4-1,1.8-1.8c0.4-0.8,0.6-1.6,0.6-2.5c0-0.9-0.2-1.8-0.6-2.5c-0.4-0.7-1-1.4-1.8-1.8
		C73.2,24.1,72.4,23.9,71.5,23.9z"/>
	<path fill="#505050" d="M83.4,22.7v1.1c-0.4-0.2-0.8-0.3-1-0.3c-0.2,0-0.4,0-0.5,0.1s-0.2,0.2-0.3,0.3c0,0.1-0.1,0.4-0.1,0.9l0,1.2
		h1.8v1h-1.8l0,7.7h-1.1V27h-1.1v-1h1.1v-1.4c0-0.6,0.1-1.1,0.2-1.3c0.1-0.3,0.3-0.5,0.6-0.6c0.3-0.2,0.6-0.2,1-0.2
		C82.5,22.5,82.9,22.6,83.4,22.7z"/>
	<path fill="#505050" d="M88.6,22.7v1.1c-0.4-0.2-0.8-0.3-1-0.3c-0.2,0-0.4,0-0.5,0.1c-0.1,0.1-0.2,0.2-0.3,0.3
		c0,0.1-0.1,0.4-0.1,0.9l0,1.2h1.8v1h-1.8l0,7.7h-1.1V27h-1.1v-1h1.1v-1.4c0-0.6,0.1-1.1,0.2-1.3c0.1-0.3,0.3-0.5,0.6-0.6
		c0.3-0.2,0.6-0.2,1-0.2C87.7,22.5,88.1,22.6,88.6,22.7z"/>
	<path fill="#505050" d="M90.5,22.5c0.3,0,0.5,0.1,0.6,0.3c0.2,0.2,0.3,0.4,0.3,0.7c0,0.2-0.1,0.5-0.3,0.6c-0.2,0.2-0.4,0.3-0.6,0.3
		c-0.2,0-0.5-0.1-0.6-0.3c-0.2-0.2-0.3-0.4-0.3-0.6c0-0.3,0.1-0.5,0.3-0.7C90.1,22.6,90.3,22.5,90.5,22.5z M90,26.1h1.1v8.6H90V26.1
		z"/>
	<path fill="#505050" d="M101.8,27.9l-0.9,0.5c-0.8-1-1.8-1.5-3.1-1.5c-1.1,0-1.9,0.3-2.6,1c-0.7,0.7-1,1.5-1,2.5
		c0,0.6,0.2,1.2,0.5,1.8c0.3,0.6,0.8,1,1.3,1.3c0.6,0.3,1.2,0.5,1.9,0.5c1.3,0,2.3-0.5,3.1-1.5l0.9,0.6c-0.4,0.6-1,1.1-1.7,1.4
		c-0.7,0.3-1.5,0.5-2.4,0.5c-1.4,0-2.5-0.4-3.4-1.3c-0.9-0.9-1.4-1.9-1.4-3.2c0-0.8,0.2-1.6,0.6-2.3s1-1.3,1.7-1.7
		c0.7-0.4,1.6-0.6,2.5-0.6c0.6,0,1.1,0.1,1.7,0.3c0.5,0.2,1,0.4,1.4,0.7C101.2,27.1,101.5,27.4,101.8,27.9z"/>
	<path fill="#505050" d="M111.2,31.8l0.9,0.5c-0.3,0.6-0.7,1.1-1.1,1.5c-0.4,0.4-0.9,0.7-1.4,0.8c-0.5,0.2-1.1,0.3-1.7,0.3
		c-1.4,0-2.5-0.5-3.3-1.4c-0.8-0.9-1.2-2-1.2-3.1c0-1.1,0.3-2.1,1-2.9c0.9-1.1,2-1.6,3.4-1.6c1.5,0,2.7,0.6,3.5,1.7
		c0.6,0.8,0.9,1.8,1,3h-7.8c0,1,0.3,1.8,1,2.5c0.6,0.6,1.4,1,2.3,1c0.4,0,0.9-0.1,1.3-0.2c0.4-0.2,0.8-0.4,1.1-0.6
		C110.6,32.8,110.9,32.4,111.2,31.8z M111.2,29.5c-0.1-0.6-0.4-1.1-0.6-1.4s-0.7-0.6-1.1-0.9c-0.5-0.2-1-0.3-1.5-0.3
		c-0.8,0-1.6,0.3-2.2,0.8c-0.4,0.4-0.8,1-1,1.8H111.2z"/>
</svg>
