<?xml version="1.0" encoding="utf-8"?>
<!-- Generator: Adobe Illustrator 22.0.1, SVG Export Plug-In . SVG Version: 6.00 Build 0)  -->
<svg version="1.1" id="applogo" xmlns="http://www.w3.org/2000/svg" xmlns:xlink="http://www.w3.org/1999/xlink" x="0px" y="0px"
	 viewBox="0 0 64 64" style="enable-background:new 0 0 64 64;" xml:space="preserve">
<style type="text/css">
	.st0{fill:#EEEEEE;}
</style>
<path class="st0" d="M54,60H10c-3.3,0-6-2.7-6-6V10c0-3.3,2.7-6,6-6h44c3.3,0,6,2.7,6,6v44C60,57.3,57.3,60,54,60z"/>
<g>
	<path d="M5,25.3v-3.9h17.3v3.9H16v17.2h-4.6V25.3H5z"/>
	<path d="M32.5,21.4l7.9,21.1h-4.8l-1.6-4.7h-7.8l-1.7,4.7h-4.6l7.9-21.1H32.5z M32.8,34.4l-2.7-7.7H30l-2.7,7.7H32.8z"/>
	<path d="M51.7,21.4c1.3,0,2.4,0.2,3.3,0.6c1,0.4,1.7,0.9,2.3,1.5c0.6,0.7,1,1.4,1.3,2.1c0.2,0.8,0.4,1.7,0.4,2.5
		c0,0.8-0.1,1.7-0.4,2.5c-0.2,0.8-0.7,1.5-1.3,2.1c-0.6,0.7-1.3,1.1-2.3,1.5c-1,0.4-2,0.6-3.3,0.6h-4.9v7.6h-4.6V21.4H51.7z
		 M50.4,31.4c0.5,0,1-0.1,1.5-0.1c0.5-0.1,1-0.2,1.3-0.5c0.4-0.2,0.7-0.5,0.9-1c0.2-0.4,0.4-1,0.4-1.6c0-0.7-0.1-1.2-0.4-1.6
		c-0.2-0.5-0.5-0.8-0.9-1c-0.4-0.2-0.8-0.4-1.3-0.5c-0.5-0.1-1-0.1-1.5-0.1h-3.6v6.3L50.4,31.4L50.4,31.4z"/>
</g>
</svg>
