<?xml version="1.0" encoding="utf-8"?>
<svg version="1.1" id="whitelogo" xmlns="http://www.w3.org/2000/svg" xmlns:xlink="http://www.w3.org/1999/xlink" x="0px" y="0px"
	 viewBox="0 0 115 20" enable-background="new 0 0 115 20" xml:space="preserve">
	<path fill="#FFFFFF" d="M1,4.3V1h14.5v3.3h-5.3v14.4H6.3V4.3H1z"/>
	<path fill="#FFFFFF" d="M24.1,1l6.6,17.7h-4l-1.3-3.9h-6.6l-1.4,3.9h-3.9L20.1,1H24.1z M24.3,11.9L22,5.4h0l-2.3,6.5H24.3z"/>
	<path fill="#FFFFFF" d="M40.2,1c1.1,0,2,0.2,2.8,0.5c0.8,0.3,1.4,0.7,1.9,1.3c0.5,0.5,0.8,1.1,1.1,1.8c0.2,0.7,0.3,1.4,0.3,2.1
		c0,0.7-0.1,1.4-0.3,2.1c-0.2,0.7-0.6,1.3-1.1,1.8c-0.5,0.5-1.1,1-1.9,1.3c-0.8,0.3-1.7,0.5-2.8,0.5h-4.1v6.3h-3.9V1H40.2z
		 M39.1,9.3c0.4,0,0.9,0,1.3-0.1c0.4-0.1,0.8-0.2,1.1-0.4c0.3-0.2,0.6-0.5,0.8-0.8c0.2-0.3,0.3-0.8,0.3-1.4c0-0.6-0.1-1-0.3-1.4
		c-0.2-0.3-0.4-0.6-0.8-0.8c-0.3-0.2-0.7-0.3-1.1-0.4C40,4.1,39.6,4,39.1,4h-3v5.3H39.1z"/>
	<path fill="#FFFFFF" d="M48.7,12.5v0.1c0,0.7,0.1,1.5,0.3,2.1c0.2,0.7,0.5,1.3,0.9,1.8c0.4,0.5,0.9,0.9,1.5,1.2
		c0.6,0.3,1.3,0.4,2,0.4c1.3,0,2.3-0.3,3-1c0.7-0.7,1.3-1.6,1.5-2.8h0.9c-0.3,1.5-0.9,2.6-1.8,3.4C56.2,18.6,55,19,53.4,19
		c-0.9,0-1.8-0.2-2.5-0.5s-1.3-0.8-1.8-1.4c-0.5-0.6-0.8-1.3-1.1-2.1c-0.2-0.8-0.3-1.7-0.3-2.6c0-0.9,0.1-1.7,0.4-2.6
		c0.2-0.8,0.6-1.5,1.1-2.2s1.1-1.1,1.8-1.5c0.7-0.4,1.6-0.6,2.5-0.6c0.9,0,1.7,0.2,2.4,0.5c0.7,0.3,1.3,0.8,1.7,1.4
		c0.5,0.6,0.8,1.2,1.1,2c0.2,0.8,0.4,1.6,0.4,2.4c0,0.1,0,0.2,0,0.3c0,0.1,0,0.2,0,0.3H48.7z M58.1,11.6c0-0.7-0.1-1.4-0.3-2
		C57.6,9,57.3,8.5,56.9,8c-0.4-0.5-0.9-0.8-1.4-1.1c-0.6-0.3-1.2-0.4-1.9-0.4c-0.8,0-1.4,0.1-2,0.4c-0.6,0.3-1.1,0.7-1.5,1.1
		c-0.4,0.5-0.7,1-0.9,1.6c-0.2,0.6-0.3,1.3-0.4,1.9H58.1z"/>
	<path fill="#FFFFFF" d="M66.1,18.7h-1.2L59.8,6h1.1l4.6,11.7h0L69.9,6h1L66.1,18.7z"/>
	<path fill="#FFFFFF" d="M72.6,12.5v0.1c0,0.7,0.1,1.5,0.3,2.1c0.2,0.7,0.5,1.3,0.9,1.8c0.4,0.5,0.9,0.9,1.5,1.2
		c0.6,0.3,1.3,0.4,2,0.4c1.3,0,2.3-0.3,3-1c0.7-0.7,1.3-1.6,1.5-2.8h0.9c-0.3,1.5-0.9,2.6-1.8,3.4C80,18.6,78.8,19,77.3,19
		c-0.9,0-1.8-0.2-2.5-0.5s-1.3-0.8-1.8-1.4c-0.5-0.6-0.8-1.3-1.1-2.1c-0.2-0.8-0.3-1.7-0.3-2.6c0-0.9,0.1-1.7,0.4-2.6
		c0.2-0.8,0.6-1.5,1.1-2.2c0.5-0.6,1.1-1.1,1.8-1.5c0.7-0.4,1.6-0.6,2.5-0.6c0.9,0,1.7,0.2,2.4,0.5c0.7,0.3,1.3,0.8,1.7,1.4
		c0.5,0.6,0.8,1.2,1.1,2c0.2,0.8,0.4,1.6,0.4,2.4c0,0.1,0,0.2,0,0.3c0,0.1,0,0.2,0,0.3H72.6z M82,11.6c0-0.7-0.1-1.4-0.3-2
		C81.4,9,81.1,8.5,80.7,8c-0.4-0.5-0.9-0.8-1.4-1.1c-0.6-0.3-1.2-0.4-1.9-0.4c-0.8,0-1.4,0.1-2,0.4c-0.6,0.3-1.1,0.7-1.5,1.1
		c-0.4,0.5-0.7,1-0.9,1.6c-0.2,0.6-0.3,1.3-0.4,1.9H82z"/>
	<path fill="#FFFFFF" d="M85.1,6H86v2.7h0.1c0.2-0.5,0.4-0.9,0.7-1.3c0.3-0.4,0.7-0.7,1.1-1c0.4-0.3,0.8-0.5,1.3-0.6
		c0.5-0.1,1-0.2,1.5-0.2c0.7,0,1.4,0.1,1.9,0.3c0.5,0.2,0.9,0.4,1.3,0.7c0.3,0.3,0.6,0.6,0.8,1s0.3,0.7,0.4,1.1
		c0.1,0.4,0.1,0.7,0.1,1.1c0,0.4,0,0.7,0,0.9v7.9h-0.9v-8.1c0-0.3,0-0.7-0.1-1.2c0-0.5-0.2-0.9-0.4-1.4c-0.2-0.4-0.6-0.8-1.1-1.1
		c-0.5-0.3-1.2-0.5-2-0.5c-0.7,0-1.4,0.1-1.9,0.4c-0.6,0.3-1,0.6-1.4,1.1c-0.4,0.5-0.7,1-0.9,1.7C86.1,10.3,86,11,86,11.8v6.9h-0.9
		V6z"/>
	<path fill="#FFFFFF" d="M102.6,6.8h-2.8v8.9c0,0.5,0.1,0.9,0.2,1.2c0.1,0.3,0.3,0.5,0.5,0.7c0.2,0.2,0.5,0.3,0.9,0.3
		c0.3,0,0.7,0,1.2,0v0.8c-0.5,0-0.9,0-1.4,0c-0.5,0-0.9-0.2-1.2-0.4c-0.3-0.2-0.6-0.5-0.8-0.9c-0.2-0.4-0.3-1-0.3-1.7V6.8h-2.4V6
		h2.4V2h0.9v4h2.8V6.8z"/>
	<path fill="#FFFFFF" d="M104.8,14.5c0,0.6,0.2,1.1,0.4,1.6c0.2,0.5,0.5,0.8,0.9,1.2c0.4,0.3,0.8,0.6,1.3,0.7s1,0.2,1.6,0.2
		c0.4,0,0.9,0,1.3-0.1c0.5-0.1,0.9-0.2,1.3-0.4c0.4-0.2,0.7-0.5,1-0.8c0.3-0.4,0.4-0.8,0.4-1.4c0-0.7-0.2-1.2-0.6-1.6
		c-0.4-0.4-1-0.6-1.6-0.8c-0.7-0.2-1.4-0.4-2.1-0.5c-0.8-0.1-1.5-0.3-2.1-0.6c-0.7-0.2-1.2-0.6-1.6-1.1c-0.4-0.5-0.6-1.1-0.6-2
		c0-0.6,0.1-1.2,0.4-1.6c0.3-0.4,0.6-0.8,1.1-1c0.4-0.2,0.9-0.4,1.5-0.5c0.5-0.1,1.1-0.2,1.6-0.2c0.7,0,1.3,0.1,1.9,0.2
		c0.6,0.1,1.1,0.4,1.5,0.7c0.4,0.3,0.8,0.8,1,1.3c0.2,0.5,0.4,1.1,0.4,1.9h-0.9c0-0.6-0.1-1.1-0.3-1.5c-0.2-0.4-0.5-0.7-0.8-1
		c-0.3-0.3-0.7-0.4-1.2-0.6c-0.5-0.1-1-0.2-1.5-0.2c-0.4,0-0.9,0-1.3,0.1c-0.4,0.1-0.8,0.2-1.2,0.4c-0.3,0.2-0.6,0.5-0.9,0.8
		c-0.2,0.3-0.3,0.7-0.3,1.1c0,0.5,0.1,0.9,0.4,1.2c0.2,0.3,0.6,0.6,1,0.8c0.4,0.2,0.9,0.3,1.4,0.5c0.5,0.1,1,0.2,1.5,0.3
		c0.6,0.1,1.2,0.3,1.8,0.4s1,0.4,1.4,0.6c0.4,0.3,0.7,0.6,1,1.1c0.2,0.4,0.3,1,0.3,1.6c0,0.7-0.2,1.3-0.5,1.7
		c-0.3,0.4-0.7,0.8-1.2,1.1c-0.5,0.3-1,0.5-1.6,0.6c-0.6,0.1-1.2,0.2-1.7,0.2c-0.7,0-1.4-0.1-2-0.3c-0.6-0.2-1.2-0.5-1.6-0.9
		c-0.5-0.4-0.8-0.9-1.1-1.4c-0.3-0.6-0.4-1.2-0.4-2H104.8z"/>
</svg>