<?xml version="1.0" encoding="utf-8"?>
<!-- Generator: Adobe Illustrator 22.0.1, SVG Export Plug-In . SVG Version: 6.00 Build 0)  -->
<svg version="1.1" id="applogo" xmlns="http://www.w3.org/2000/svg" xmlns:xlink="http://www.w3.org/1999/xlink" x="0px" y="0px"
	 viewBox="0 0 226 72" enable-background="new 0 0 226 72" xml:space="preserve">
<g>
	<path d="M2,8.4V2h28.5v6.4H20v28.4h-7.6V8.4H2z"/>
	<path d="M47.3,2l13,34.9h-7.9l-2.6-7.8h-13L34,36.9h-7.7L39.4,2H47.3z M47.7,23.4l-4.4-12.8h-0.1l-4.5,12.8H47.7z"/>
	<path d="M78.9,2c2.2,0,4,0.3,5.5,1c1.5,0.6,2.8,1.5,3.7,2.5c1,1,1.7,2.2,2.1,3.6c0.4,1.3,0.7,2.7,0.7,4.2c0,1.4-0.2,2.8-0.7,4.1
		c-0.4,1.4-1.1,2.5-2.1,3.6c-1,1-2.2,1.9-3.7,2.5c-1.5,0.6-3.4,1-5.5,1h-8v12.5h-7.6V2H78.9z M76.8,18.4c0.9,0,1.7-0.1,2.5-0.2
		c0.8-0.1,1.5-0.4,2.1-0.8c0.6-0.4,1.1-0.9,1.5-1.6c0.4-0.7,0.6-1.6,0.6-2.7c0-1.1-0.2-2-0.6-2.7s-0.9-1.2-1.5-1.6
		c-0.6-0.4-1.3-0.6-2.1-0.8C78.6,8,77.7,8,76.8,8h-5.9v10.4H76.8z"/>
	<path d="M95.8,24.6v0.3c0,1.5,0.2,2.9,0.6,4.2c0.4,1.3,1,2.5,1.7,3.5c0.8,1,1.7,1.8,2.9,2.4c1.2,0.6,2.5,0.9,4,0.9
		c2.5,0,4.5-0.7,6-2c1.5-1.3,2.5-3.1,3-5.5h1.8c-0.6,2.9-1.7,5.2-3.6,6.7c-1.8,1.6-4.3,2.3-7.3,2.3c-1.8,0-3.5-0.3-4.8-1
		c-1.4-0.7-2.5-1.6-3.5-2.7c-0.9-1.2-1.6-2.5-2.1-4.1c-0.5-1.6-0.7-3.3-0.7-5.1c0-1.8,0.2-3.4,0.7-5.1c0.5-1.6,1.2-3,2.1-4.2
		c0.9-1.2,2.1-2.2,3.5-2.9c1.4-0.7,3.1-1.1,5-1.1c1.7,0,3.3,0.3,4.6,1c1.3,0.7,2.5,1.5,3.4,2.7c0.9,1.1,1.6,2.4,2.1,3.9
		c0.5,1.5,0.7,3.1,0.7,4.8c0,0.2,0,0.3,0,0.6c0,0.2,0,0.4,0,0.5H95.8z M114.1,22.9c-0.1-1.4-0.3-2.7-0.7-3.9c-0.4-1.2-1-2.3-1.7-3.2
		c-0.8-0.9-1.7-1.7-2.8-2.2c-1.1-0.6-2.3-0.8-3.7-0.8c-1.5,0-2.8,0.3-3.9,0.9c-1.1,0.6-2.1,1.3-2.9,2.2c-0.8,0.9-1.4,2-1.8,3.2
		c-0.4,1.2-0.7,2.5-0.8,3.8H114.1z"/>
	<path d="M129.9,36.9h-2.3l-10.1-25.1h2.1l9,22.9h0.1l8.5-22.9h2L129.9,36.9z"/>
	<path d="M142.6,24.6v0.3c0,1.5,0.2,2.9,0.6,4.2s1,2.5,1.7,3.5c0.8,1,1.7,1.8,2.9,2.4c1.2,0.6,2.5,0.9,4,0.9c2.5,0,4.5-0.7,6-2
		c1.5-1.3,2.5-3.1,3-5.5h1.8c-0.6,2.9-1.7,5.2-3.6,6.7c-1.8,1.6-4.3,2.3-7.3,2.3c-1.8,0-3.5-0.3-4.8-1c-1.4-0.7-2.5-1.6-3.5-2.7
		c-0.9-1.2-1.6-2.5-2.1-4.1c-0.5-1.6-0.7-3.3-0.7-5.1c0-1.8,0.2-3.4,0.7-5.1c0.5-1.6,1.2-3,2.1-4.2c0.9-1.2,2.1-2.2,3.5-2.9
		c1.4-0.7,3.1-1.1,5-1.1c1.7,0,3.3,0.3,4.6,1c1.3,0.7,2.5,1.5,3.4,2.7c0.9,1.1,1.6,2.4,2.1,3.9c0.5,1.5,0.7,3.1,0.7,4.8
		c0,0.2,0,0.3,0,0.6c0,0.2,0,0.4,0,0.5H142.6z M161,22.9c-0.1-1.4-0.3-2.7-0.7-3.9c-0.4-1.2-1-2.3-1.7-3.2c-0.8-0.9-1.7-1.7-2.8-2.2
		c-1.1-0.6-2.3-0.8-3.7-0.8c-1.5,0-2.8,0.3-3.9,0.9c-1.1,0.6-2.1,1.3-2.9,2.2c-0.8,0.9-1.4,2-1.8,3.2c-0.4,1.2-0.7,2.5-0.8,3.8H161z
		"/>
	<path d="M167.2,11.8h1.8v5.4h0.1c0.3-0.9,0.8-1.8,1.4-2.5c0.6-0.7,1.3-1.4,2.1-1.9c0.8-0.5,1.7-0.9,2.6-1.2
		c0.9-0.3,1.9-0.4,2.9-0.4c1.5,0,2.7,0.2,3.7,0.5c1,0.4,1.9,0.8,2.5,1.4s1.2,1.2,1.5,2c0.4,0.7,0.6,1.5,0.8,2.2
		c0.2,0.7,0.3,1.5,0.3,2.2s0,1.3,0,1.8v15.5h-1.8V21c0-0.6,0-1.4-0.1-2.3s-0.4-1.8-0.9-2.7c-0.5-0.9-1.2-1.6-2.1-2.2
		c-1-0.6-2.3-0.9-4-0.9c-1.4,0-2.7,0.3-3.8,0.8c-1.1,0.5-2,1.2-2.8,2.2c-0.8,0.9-1.4,2-1.8,3.3c-0.4,1.3-0.6,2.7-0.6,4.2v13.6h-1.8
		V11.8z"/>
	<path d="M201.6,13.4h-5.4v17.5c0,1,0.1,1.8,0.3,2.4c0.2,0.6,0.6,1,1,1.3c0.5,0.3,1,0.5,1.7,0.6c0.7,0.1,1.4,0.1,2.3,0v1.6
		c-0.9,0.1-1.9,0.1-2.7,0c-0.9-0.1-1.7-0.3-2.4-0.7s-1.2-1-1.6-1.8c-0.4-0.8-0.6-1.9-0.5-3.4V13.4h-4.6v-1.6h4.6V4h1.8v7.8h5.4V13.4
		z"/>
	<path d="M205.9,28.5c0.1,1.2,0.3,2.2,0.8,3.1c0.5,0.9,1,1.7,1.8,2.3c0.7,0.6,1.6,1.1,2.6,1.4c1,0.3,2,0.5,3.2,0.5
		c0.8,0,1.7-0.1,2.6-0.2c0.9-0.1,1.8-0.4,2.6-0.8c0.8-0.4,1.5-0.9,2-1.6c0.5-0.7,0.8-1.6,0.8-2.7c0-1.4-0.4-2.5-1.3-3.2
		c-0.8-0.7-1.9-1.3-3.2-1.7c-1.3-0.4-2.7-0.7-4.1-1c-1.5-0.2-2.9-0.6-4.1-1.1c-1.3-0.5-2.3-1.2-3.2-2.1c-0.8-0.9-1.3-2.2-1.3-3.9
		c0-1.2,0.3-2.3,0.8-3.1c0.6-0.8,1.3-1.5,2.1-2c0.9-0.5,1.8-0.8,2.9-1c1.1-0.2,2.1-0.3,3.2-0.3c1.3,0,2.5,0.1,3.6,0.4
		c1.1,0.3,2.1,0.8,2.9,1.4c0.8,0.7,1.5,1.5,1.9,2.5c0.5,1,0.7,2.2,0.7,3.7h-1.8c0-1.1-0.2-2.1-0.6-2.9c-0.4-0.8-0.9-1.5-1.6-2
		c-0.7-0.5-1.5-0.9-2.4-1.1c-0.9-0.2-1.9-0.4-2.9-0.4c-0.8,0-1.7,0.1-2.6,0.2s-1.6,0.4-2.3,0.8c-0.7,0.4-1.2,0.9-1.7,1.5
		c-0.4,0.6-0.7,1.4-0.7,2.2c0,1,0.2,1.8,0.7,2.4c0.5,0.6,1.1,1.1,1.9,1.5c0.8,0.4,1.7,0.7,2.7,0.9s2,0.5,3,0.7
		c1.2,0.2,2.4,0.5,3.5,0.8c1.1,0.3,2,0.7,2.8,1.3c0.8,0.5,1.4,1.2,1.9,2.1c0.5,0.8,0.7,1.9,0.7,3.2c0,1.4-0.3,2.5-0.9,3.4
		c-0.6,0.9-1.4,1.6-2.3,2.1c-0.9,0.5-2,0.9-3.1,1.1c-1.2,0.2-2.3,0.3-3.4,0.3c-1.4,0-2.7-0.2-4-0.6c-1.2-0.4-2.3-0.9-3.2-1.7
		c-0.9-0.8-1.6-1.7-2.1-2.8c-0.5-1.1-0.8-2.4-0.8-3.9H205.9z"/>
	<path fill="#505050" d="M53.4,46H58c1.8,0,3.3,0.2,4.3,0.7c1,0.4,1.8,1.1,2.4,2c0.6,0.9,0.9,1.9,0.9,3c0,1-0.3,2-0.8,2.8
		c-0.5,0.9-1.2,1.5-2.2,2.1c1.2,0.4,2.1,0.9,2.8,1.5c0.7,0.6,1.2,1.2,1.5,2c0.4,0.8,0.5,1.6,0.5,2.6c0,1.9-0.7,3.5-2.1,4.8
		c-1.4,1.3-3.2,1.9-5.5,1.9h-6.4V46z M55.7,48.3v7.5H57c1.6,0,2.8-0.2,3.6-0.5c0.8-0.3,1.4-0.8,1.8-1.4c0.4-0.7,0.7-1.4,0.7-2.2
		c0-1.1-0.4-1.9-1.1-2.5c-0.7-0.6-1.9-0.9-3.6-0.9H55.7z M55.7,58.2v9h2.9c1.7,0,3-0.2,3.7-0.5c0.8-0.3,1.4-0.9,1.9-1.6
		c0.5-0.7,0.7-1.5,0.7-2.3c0-1-0.3-1.9-1-2.7c-0.7-0.8-1.6-1.3-2.8-1.6c-0.8-0.2-2.2-0.3-4.1-0.3H55.7z"/>
	<path fill="#505050" d="M88.7,52.1v17.3h-2.2v-3c-0.9,1.1-2,2-3.1,2.6c-1.2,0.6-2.4,0.9-3.8,0.9c-2.4,0-4.5-0.9-6.2-2.7
		c-1.7-1.8-2.6-3.9-2.6-6.5c0-2.5,0.9-4.6,2.6-6.4s3.8-2.7,6.3-2.7c1.4,0,2.7,0.3,3.8,0.9c1.1,0.6,2.2,1.5,3,2.7v-3.2H88.7z
		 M79.9,53.8c-1.2,0-2.4,0.3-3.4,0.9c-1,0.6-1.9,1.5-2.5,2.6c-0.6,1.1-0.9,2.3-0.9,3.5c0,1.2,0.3,2.4,0.9,3.5c0.6,1.1,1.5,2,2.5,2.6
		c1,0.6,2.2,0.9,3.4,0.9c1.2,0,2.4-0.3,3.4-0.9c1.1-0.6,1.9-1.4,2.5-2.5c0.6-1,0.9-2.2,0.9-3.5c0-2-0.7-3.7-2-5
		C83.4,54.5,81.8,53.8,79.9,53.8z"/>
	<path fill="#505050" d="M110.4,55.7l-1.8,1.1c-1.5-2-3.6-3-6.2-3c-2.1,0-3.8,0.7-5.2,2c-1.4,1.4-2.1,3-2.1,4.9c0,1.3,0.3,2.4,1,3.6
		c0.6,1.1,1.5,2,2.6,2.6s2.4,0.9,3.7,0.9c2.5,0,4.6-1,6.2-3l1.8,1.2c-0.8,1.2-1.9,2.2-3.3,2.9c-1.4,0.7-3,1-4.7,1
		c-2.7,0-5-0.9-6.8-2.6c-1.8-1.7-2.7-3.9-2.7-6.3c0-1.7,0.4-3.2,1.3-4.7s2-2.6,3.5-3.4c1.5-0.8,3.1-1.2,4.9-1.2
		c1.1,0,2.2,0.2,3.3,0.5c1.1,0.3,2,0.8,2.7,1.4C109.3,54.1,109.9,54.8,110.4,55.7z"/>
	<path fill="#505050" d="M114.7,45.4h2.2v13.7l8-7h3.3l-9.5,8.2l10,9h-3.1l-8.7-7.8v7.8h-2.2V45.4z"/>
	<path fill="#505050" d="M142.4,45.4c3.5,0,6.5,1.2,8.9,3.5s3.6,5.3,3.6,8.7c0,3.4-1.2,6.3-3.6,8.7S146,70,142.6,70
		c-3.5,0-6.4-1.2-8.7-3.6c-2.4-2.4-3.6-5.2-3.6-8.6c0-2.2,0.5-4.3,1.6-6.2c1.1-1.9,2.6-3.4,4.4-4.5C138.2,46,140.2,45.4,142.4,45.4z
		 M142.5,47.7c-1.7,0-3.4,0.5-4.9,1.4c-1.5,0.9-2.7,2.1-3.6,3.6c-0.9,1.5-1.3,3.2-1.3,5.1c0,2.8,1,5.1,2.9,7
		c1.9,1.9,4.2,2.9,6.9,2.9c1.8,0,3.5-0.4,5-1.3c1.5-0.9,2.7-2.1,3.6-3.6c0.9-1.5,1.3-3.2,1.3-5.1c0-1.9-0.4-3.5-1.3-5
		c-0.9-1.5-2.1-2.7-3.6-3.6C145.9,48.2,144.3,47.7,142.5,47.7z"/>
	<path fill="#505050" d="M166.2,45.4v2.2c-0.8-0.3-1.5-0.5-2.1-0.5c-0.4,0-0.8,0.1-1.1,0.3s-0.5,0.4-0.5,0.6
		c-0.1,0.2-0.1,0.8-0.1,1.8l0,2.3h3.6V54h-3.6l0,15.4h-2.2V54h-2.3v-1.9h2.3v-2.7c0-1.2,0.1-2.1,0.3-2.7c0.2-0.5,0.6-1,1.2-1.3
		c0.5-0.3,1.2-0.5,2-0.5C164.4,45,165.2,45.1,166.2,45.4z"/>
	<path fill="#505050" d="M176.5,45.4v2.2c-0.8-0.3-1.5-0.5-2.1-0.5c-0.4,0-0.8,0.1-1.1,0.3c-0.3,0.2-0.5,0.4-0.5,0.6
		c-0.1,0.2-0.1,0.8-0.1,1.8l0,2.3h3.6V54h-3.6l0,15.4h-2.2V54h-2.3v-1.9h2.3v-2.7c0-1.2,0.1-2.1,0.3-2.7c0.2-0.5,0.6-1,1.2-1.3
		c0.5-0.3,1.2-0.5,2-0.5C174.6,45,175.5,45.1,176.5,45.4z"/>
	<path fill="#505050" d="M180.4,45c0.5,0,0.9,0.2,1.3,0.5c0.4,0.4,0.5,0.8,0.5,1.3c0,0.5-0.2,0.9-0.5,1.3c-0.4,0.4-0.8,0.5-1.3,0.5
		c-0.5,0-0.9-0.2-1.3-0.5c-0.4-0.4-0.5-0.8-0.5-1.3c0-0.5,0.2-0.9,0.5-1.3C179.4,45.2,179.9,45,180.4,45z M179.3,52.1h2.2v17.3h-2.2
		V52.1z"/>
	<path fill="#505050" d="M202.8,55.7l-1.8,1.1c-1.5-2-3.6-3-6.2-3c-2.1,0-3.8,0.7-5.2,2c-1.4,1.4-2.1,3-2.1,4.9c0,1.3,0.3,2.4,1,3.6
		c0.6,1.1,1.5,2,2.6,2.6s2.4,0.9,3.7,0.9c2.5,0,4.6-1,6.2-3l1.8,1.2c-0.8,1.2-1.9,2.2-3.3,2.9c-1.4,0.7-3,1-4.7,1
		c-2.7,0-5-0.9-6.8-2.6c-1.8-1.7-2.7-3.9-2.7-6.3c0-1.7,0.4-3.2,1.3-4.7s2-2.6,3.5-3.4s3.1-1.2,4.9-1.2c1.1,0,2.2,0.2,3.3,0.5
		s2,0.8,2.7,1.4C201.7,54.1,202.3,54.8,202.8,55.7z"/>
	<path fill="#505050" d="M221.6,63.7l1.9,1c-0.6,1.2-1.3,2.2-2.1,2.9c-0.8,0.7-1.7,1.3-2.7,1.7c-1,0.4-2.1,0.6-3.4,0.6
		c-2.8,0-5-0.9-6.6-2.8c-1.6-1.8-2.4-3.9-2.4-6.3c0-2.2,0.7-4.1,2-5.9c1.7-2.2,4-3.3,6.8-3.3c2.9,0,5.3,1.1,7,3.4
		c1.2,1.6,1.9,3.6,1.9,5.9h-15.5c0,2,0.7,3.7,1.9,4.9c1.2,1.3,2.8,1.9,4.6,1.9c0.9,0,1.7-0.2,2.6-0.5c0.8-0.3,1.5-0.7,2.1-1.2
		C220.3,65.6,220.9,64.8,221.6,63.7z M221.6,59c-0.3-1.2-0.7-2.1-1.3-2.8s-1.3-1.3-2.2-1.7c-0.9-0.4-1.9-0.7-2.9-0.7
		c-1.7,0-3.1,0.5-4.4,1.6c-0.9,0.8-1.6,2-2,3.6H221.6z"/>
</g>
</svg>
