<?xml version="1.0" encoding="utf-8"?>
<!-- Generator: Adobe Illustrator 22.0.1, SVG Export Plug-In . SVG Version: 6.00 Build 0)  -->
<svg version="1.1" id="applogo" xmlns="http://www.w3.org/2000/svg" xmlns:xlink="http://www.w3.org/1999/xlink" x="0px" y="0px"
	 viewBox="0 0 64 64" style="enable-background:new 0 0 64 64;" xml:space="preserve">
<style type="text/css">
	.st0{fill:#EEEEEE;}
</style>
<path class="st0" d="M55.6,62H8.4C4.9,62,2,59.1,2,55.6V8.4C2,4.9,4.9,2,8.4,2h47.1C59.1,2,62,4.9,62,8.4v47.1
	C62,59.1,59.1,62,55.6,62z"/>
<g>
	<path d="M5,26.3v-3.9h17.3v3.9H16v17.2h-4.6V26.3H5z"/>
	<path d="M32.5,22.5l7.9,21.1h-4.8L34,38.8h-7.8l-1.7,4.7h-4.6l7.9-21.1H32.5z M32.8,35.5l-2.7-7.7H30l-2.7,7.7H32.8z"/>
	<path d="M51.7,22.5c1.3,0,2.4,0.2,3.3,0.6c1,0.4,1.7,0.9,2.3,1.5c0.6,0.7,1,1.4,1.3,2.1c0.2,0.8,0.4,1.7,0.4,2.5s-0.1,1.7-0.4,2.5
		c-0.2,0.8-0.7,1.5-1.3,2.1c-0.6,0.7-1.3,1.1-2.3,1.5s-2,0.6-3.3,0.6h-4.9v7.6h-4.6v-21H51.7z M50.4,32.5c0.5,0,1-0.1,1.5-0.1
		c0.5-0.1,1-0.2,1.3-0.5c0.4-0.2,0.7-0.5,0.9-1c0.2-0.4,0.4-1,0.4-1.6c0-0.7-0.1-1.2-0.4-1.6c-0.2-0.5-0.5-0.8-0.9-1
		s-0.8-0.4-1.3-0.5c-0.5-0.1-1-0.1-1.5-0.1h-3.6v6.3L50.4,32.5L50.4,32.5z"/>
</g>
</svg>
