<?xml version="1.0" encoding="utf-8"?>
<!-- Generator: Adobe Illustrator 22.0.1, SVG Export Plug-In . SVG Version: 6.00 Build 0)  -->
<svg version="1.1" id="Layer_1" xmlns="http://www.w3.org/2000/svg" xmlns:xlink="http://www.w3.org/1999/xlink" x="0px" y="0px"
	 viewBox="0 0 230 40" enable-background="new 0 0 230 40" xml:space="preserve">
<g>
	<path fill="#FFFFFF" d="M2,8.5V2h29v6.5H20.4v28.9h-7.8V8.5H2z"/>
	<path fill="#FFFFFF" d="M48.1,2l13.2,35.4h-8.1l-2.7-7.9H37.4l-2.8,7.9h-7.8L40.1,2H48.1z M48.6,23.7l-4.5-13H44l-4.6,13H48.6z"/>
	<path fill="#FFFFFF" d="M80.4,2c2.2,0,4.1,0.3,5.6,1c1.6,0.6,2.8,1.5,3.8,2.6c1,1.1,1.7,2.3,2.1,3.6c0.4,1.4,0.7,2.8,0.7,4.2
		c0,1.4-0.2,2.8-0.7,4.2c-0.4,1.4-1.2,2.6-2.1,3.6c-1,1.1-2.2,1.9-3.8,2.6c-1.6,0.6-3.4,1-5.6,1h-8.2v12.7h-7.8V2H80.4z M78.2,18.7
		c0.9,0,1.7-0.1,2.6-0.2c0.8-0.1,1.6-0.4,2.2-0.8c0.6-0.4,1.1-0.9,1.5-1.6c0.4-0.7,0.6-1.6,0.6-2.7c0-1.1-0.2-2-0.6-2.7
		C84.1,9.9,83.6,9.4,83,9c-0.6-0.4-1.4-0.6-2.2-0.8c-0.8-0.1-1.7-0.2-2.6-0.2h-6v10.6H78.2z"/>
	<path fill="#FFFFFF" d="M97.5,24.9v0.3c0,1.5,0.2,2.9,0.6,4.3c0.4,1.4,1,2.5,1.8,3.6c0.8,1,1.8,1.8,2.9,2.4
		c1.2,0.6,2.5,0.9,4.1,0.9c2.6,0,4.6-0.7,6.1-2c1.5-1.3,2.5-3.2,3.1-5.6h1.9c-0.6,3-1.8,5.3-3.6,6.8c-1.9,1.6-4.3,2.4-7.4,2.4
		c-1.9,0-3.5-0.3-4.9-1s-2.6-1.6-3.5-2.8c-0.9-1.2-1.6-2.6-2.1-4.2c-0.5-1.6-0.7-3.3-0.7-5.2c0-1.8,0.2-3.5,0.7-5.1
		c0.5-1.6,1.2-3.1,2.2-4.3s2.2-2.2,3.6-3c1.4-0.7,3.1-1.1,5.1-1.1c1.8,0,3.4,0.3,4.7,1c1.4,0.7,2.5,1.6,3.4,2.7
		c0.9,1.1,1.6,2.5,2.1,4c0.5,1.5,0.7,3.1,0.7,4.8c0,0.2,0,0.4,0,0.6c0,0.2,0,0.4,0,0.5H97.5z M116.2,23.3c-0.1-1.4-0.3-2.7-0.7-3.9
		c-0.4-1.2-1-2.3-1.8-3.3c-0.8-0.9-1.7-1.7-2.8-2.3c-1.1-0.6-2.4-0.8-3.8-0.8c-1.5,0-2.9,0.3-4,0.9c-1.2,0.6-2.1,1.3-2.9,2.3
		c-0.8,0.9-1.4,2-1.8,3.3c-0.4,1.3-0.7,2.5-0.8,3.9H116.2z"/>
	<path fill="#FFFFFF" d="M132.2,37.4h-2.3l-10.3-25.5h2.2l9.2,23.3h0.1l8.6-23.3h2.1L132.2,37.4z"/>
	<path fill="#FFFFFF" d="M145.2,24.9v0.3c0,1.5,0.2,2.9,0.6,4.3c0.4,1.4,1,2.5,1.8,3.6c0.8,1,1.8,1.8,2.9,2.4
		c1.2,0.6,2.5,0.9,4.1,0.9c2.6,0,4.6-0.7,6.1-2c1.5-1.3,2.5-3.2,3.1-5.6h1.9c-0.6,3-1.8,5.3-3.6,6.8c-1.9,1.6-4.3,2.4-7.4,2.4
		c-1.9,0-3.5-0.3-4.9-1s-2.6-1.6-3.5-2.8c-0.9-1.2-1.6-2.6-2.1-4.2c-0.5-1.6-0.7-3.3-0.7-5.2c0-1.8,0.2-3.5,0.7-5.1
		c0.5-1.6,1.2-3.1,2.2-4.3c1-1.2,2.2-2.2,3.6-3c1.4-0.7,3.1-1.1,5.1-1.1c1.8,0,3.4,0.3,4.7,1c1.4,0.7,2.5,1.6,3.4,2.7
		c0.9,1.1,1.6,2.5,2.1,4c0.5,1.5,0.7,3.1,0.7,4.8c0,0.2,0,0.4,0,0.6c0,0.2,0,0.4,0,0.5H145.2z M163.9,23.3c-0.1-1.4-0.3-2.7-0.7-3.9
		c-0.4-1.2-1-2.3-1.8-3.3c-0.8-0.9-1.7-1.7-2.8-2.3c-1.1-0.6-2.4-0.8-3.8-0.8c-1.5,0-2.9,0.3-4,0.9c-1.2,0.6-2.1,1.3-2.9,2.3
		c-0.8,0.9-1.4,2-1.8,3.3c-0.4,1.3-0.7,2.5-0.8,3.9H163.9z"/>
	<path fill="#FFFFFF" d="M170.2,11.9h1.9v5.5h0.1c0.3-1,0.8-1.8,1.4-2.6c0.6-0.7,1.3-1.4,2.1-1.9c0.8-0.5,1.7-0.9,2.7-1.2
		c1-0.3,1.9-0.4,2.9-0.4c1.5,0,2.7,0.2,3.8,0.5c1,0.4,1.9,0.8,2.6,1.4c0.7,0.6,1.2,1.3,1.6,2s0.7,1.5,0.8,2.3
		c0.2,0.8,0.3,1.5,0.3,2.2c0,0.7,0.1,1.3,0.1,1.9v15.8h-1.9V21.3c0-0.6-0.1-1.4-0.1-2.4c-0.1-1-0.4-1.9-0.9-2.8
		c-0.5-0.9-1.2-1.6-2.2-2.3c-1-0.6-2.3-0.9-4-0.9c-1.5,0-2.7,0.3-3.9,0.8c-1.1,0.5-2.1,1.3-2.9,2.2c-0.8,0.9-1.4,2.1-1.8,3.4
		c-0.4,1.3-0.6,2.7-0.6,4.3v13.8h-1.9V11.9z"/>
	<path fill="#FFFFFF" d="M205.3,13.6h-5.5v17.8c0,1,0.1,1.8,0.3,2.4c0.2,0.6,0.6,1,1.1,1.4c0.5,0.3,1.1,0.5,1.7,0.6
		c0.7,0.1,1.5,0.1,2.4,0v1.6c-1,0.1-1.9,0.1-2.8,0c-0.9-0.1-1.7-0.3-2.4-0.7c-0.7-0.4-1.2-1-1.7-1.9c-0.4-0.8-0.6-2-0.5-3.4V13.6
		h-4.7v-1.6h4.7V4h1.9v7.9h5.5V13.6z"/>
	<path fill="#FFFFFF" d="M209.6,28.9c0.1,1.2,0.3,2.2,0.8,3.1c0.5,0.9,1.1,1.7,1.8,2.3c0.7,0.6,1.6,1.1,2.6,1.5s2.1,0.5,3.2,0.5
		c0.8,0,1.7-0.1,2.7-0.2c0.9-0.1,1.8-0.4,2.6-0.8c0.8-0.4,1.5-1,2-1.7c0.5-0.7,0.8-1.6,0.8-2.7c0-1.4-0.4-2.5-1.3-3.2
		c-0.9-0.7-1.9-1.3-3.2-1.7c-1.3-0.4-2.7-0.7-4.2-1c-1.5-0.2-2.9-0.6-4.2-1.1c-1.3-0.5-2.4-1.2-3.2-2.1c-0.9-0.9-1.3-2.2-1.3-4
		c0-1.3,0.3-2.3,0.8-3.1c0.6-0.8,1.3-1.5,2.2-2c0.9-0.5,1.9-0.9,2.9-1.1c1.1-0.2,2.2-0.3,3.3-0.3c1.3,0,2.6,0.1,3.7,0.4
		c1.2,0.3,2.2,0.8,3,1.4c0.8,0.7,1.5,1.5,2,2.5c0.5,1,0.7,2.3,0.7,3.7h-1.9c0-1.2-0.2-2.1-0.6-3c-0.4-0.8-0.9-1.5-1.6-2
		c-0.7-0.5-1.5-0.9-2.4-1.1c-0.9-0.2-1.9-0.4-3-0.4c-0.9,0-1.7,0.1-2.6,0.2c-0.9,0.2-1.7,0.4-2.4,0.8c-0.7,0.4-1.3,0.9-1.7,1.5
		c-0.4,0.6-0.7,1.4-0.7,2.3c0,1,0.2,1.9,0.7,2.5c0.5,0.6,1.1,1.1,2,1.5c0.8,0.4,1.7,0.7,2.7,0.9c1,0.2,2,0.5,3,0.7
		c1.3,0.2,2.4,0.5,3.5,0.8s2.1,0.7,2.9,1.3c0.8,0.5,1.4,1.2,1.9,2.1c0.5,0.9,0.7,2,0.7,3.3c0,1.4-0.3,2.5-0.9,3.4
		c-0.6,0.9-1.4,1.6-2.4,2.2c-1,0.5-2,0.9-3.2,1.1c-1.2,0.2-2.3,0.3-3.4,0.3c-1.5,0-2.8-0.2-4-0.6c-1.2-0.4-2.3-1-3.2-1.7
		c-0.9-0.8-1.7-1.7-2.2-2.9c-0.5-1.1-0.8-2.4-0.8-3.9H209.6z"/>
</g>
</svg>
